<?xml version="1.0" standalone="no"?><!DOCTYPE svg PUBLIC "-//W3C//DTD SVG 1.1//EN" "http://www.w3.org/Graphics/SVG/1.1/DTD/svg11.dtd"><svg t="1594279820454" class="icon" viewBox="0 0 1024 1024" version="1.1" xmlns="http://www.w3.org/2000/svg" p-id="2977" xmlns:xlink="http://www.w3.org/1999/xlink" width="200" height="200"><defs><style type="text/css"></style></defs><path d="M50.176 559.826824c4.216471-26.443294 17.106824-47.887059 35.779765-66.56 39.755294-39.755294 79.631059-79.269647 119.386353-118.964706l206.185411-205.221647L535.491765 45.718588c15.540706-15.299765 33.972706-25.840941 55.235764-31.201882 13.733647-3.373176 27.828706-6.927059 42.164706-3.794824 78.607059 17.709176 157.093647 35.358118 235.52 53.248 22.889412 5.180235 42.947765 16.082824 59.27153 33.189647 16.263529 17.106824 25.780706 37.767529 31.141647 60.596706 15.661176 67.945412 31.623529 135.890824 47.284706 203.836236 3.373176 14.697412 6.987294 29.394824 5.180235 44.694588a130.108235 130.108235 0 0 1-39.514353 81.01647c-39.936 39.333647-79.691294 79.269647-119.386353 119.024942l-193.114353 192.090353c-33.551059 33.370353-67.162353 66.921412-100.894118 100.352-15.540706 15.239529-30.418824 31.322353-47.525647 44.875294-44.092235 34.936471-110.832941 32.527059-152.576-4.99953-18.251294-16.444235-35.358118-34.153412-52.645647-51.440941l-221.063529-219.858823A122.639059 122.639059 0 0 1 48.007529 580.065882c0.602353-6.927059 0.963765-13.673412 2.168471-20.239058z m72.884706 68.547764c55.055059 54.814118 110.290824 109.628235 165.526588 164.683294 33.129412 32.948706 66.319059 66.379294 99.689412 99.328 20.118588 19.636706 43.971765 25.419294 70.77647 17.648942a70.475294 70.475294 0 0 0 30.358589-19.275295l127.518117-127.277176c64.813176-64.391529 129.505882-128.783059 194.319059-193.355294 41.321412-41.080471 82.823529-81.980235 124.144941-123.120941 16.504471-16.504471 24.696471-36.141176 20.48-59.632942-1.987765-11.685647-4.818824-23.431529-7.348706-34.93647-14.336-61.44-28.611765-123.000471-43.12847-184.32-6.746353-28.672-24.636235-45.899294-53.007059-52.464941-71.318588-16.504471-142.878118-32.768-214.377412-49.091765-5.541647-1.204706-11.504941-1.566118-17.106823-2.409412-20.48 0-36.321882 9.577412-50.236236 23.491765-40.96 40.96-82.040471 81.799529-123.181176 122.759529C383.337412 274.191059 319.247059 337.92 255.216941 401.709176L124.084706 531.998118c-10.119529 10.179765-17.468235 21.865412-19.877647 36.382117-4.156235 23.250824 1.987765 43.309176 18.913882 59.994353z m598.738823-428.092235c55.055059 0 98.605176 43.489882 98.605177 98.123294A98.304 98.304 0 0 1 722.823529 395.565176c-54.031059 0-98.906353-43.971765-98.906353-97.159529 0-54.031059 43.911529-98.183529 97.942589-98.183529zM722.823529 340.690824a42.767059 42.767059 0 0 0 43.128471-43.068236 43.369412 43.369412 0 0 0-43.730824-43.12847 43.429647 43.429647 0 0 0-43.670588 43.730823c0 23.792941 19.636706 42.706824 44.272941 42.465883z" p-id="2978"></path></svg>