<?xml version="1.0" standalone="no"?><!DOCTYPE svg PUBLIC "-//W3C//DTD SVG 1.1//EN" "http://www.w3.org/Graphics/SVG/1.1/DTD/svg11.dtd"><svg t="1594279916453" class="icon" viewBox="0 0 1024 1024" version="1.1" xmlns="http://www.w3.org/2000/svg" p-id="8762" xmlns:xlink="http://www.w3.org/1999/xlink" width="200" height="200"><defs><style type="text/css"></style></defs><path d="M190.9 328.9c0 15.6 12.7 28.2 28.3 28.2h585.7c15.6 0 28.2-12.6 28.2-28.2s-12.7-28.2-28.2-28.2H219.2c-15.6-0.1-28.3 12.5-28.3 28.2z m614 141.5H219.2c-15.6 0-28.3 12.6-28.3 28.2s12.7 28.2 28.3 28.2h585.7c15.6 0 28.2-12.6 28.2-28.2s-12.7-28.2-28.2-28.2z m0 175.5H564.5c-15.6 0-28.2 12.6-28.2 28.2s12.6 28.2 28.2 28.2h240.4c15.6 0 28.2-12.6 28.2-28.2s-12.7-28.2-28.2-28.2z m0 169.8H564.5c-15.6 0-28.2 12.6-28.2 28.2s12.6 28.2 28.2 28.2h240.4c15.6 0 28.2-12.6 28.2-28.2s-12.7-28.2-28.2-28.2zM435.4 619.2l-81.6 124.5-81.1-124.5H221l92.9 137.3h-61v33.3h78.2v20.3h-78.2v33.3h78.2v55.4h44.7v-55.4H454v-33.3h-78.2v-20.3H454v-33.3h-61l92.8-137.3h-50.4z" p-id="8763"></path><path d="M919 100.9H777.2V48.7c0-26.9-21.8-48.7-48.7-48.7h-433c-26.9 0-48.7 21.8-48.7 48.7v52.2H104.9c-26.8 0-48.6 20.4-48.6 45.4v832.3c0 25 21.8 45.4 48.6 45.4H919c26.8 0 48.6-20.4 48.6-45.4V146.3c0.1-25.1-21.7-45.4-48.6-45.4z m-615.8 56.5V56.5h417.5v121.4H303.2v-20.5z m608 810.1H112.7V157.4h134.1v28.3c0 26.8 21.8 48.7 48.7 48.7h433c26.9 0 48.7-21.9 48.7-48.7v-28.3h134.1l-0.1 810.1z" p-id="8764"></path></svg>